<?xml version="1.0" encoding="UTF-8"?>
<svg xmlns="http://www.w3.org/2000/svg" viewBox="0 0 220 280" role="img" aria-labelledby="bard-title bard-desc">
  <title id="bard-title">The Nameless Bard</title>
  <desc id="bard-desc">A bust portrait. A hooded singer in a deep purple cloak, his face half-shadowed by the drawn-forward hood, parted lips mid-song, dark hair escaping at the brow, against a midnight-purple field scattered with small pale stars. A nameplate at the foot reads THE NAMELESS BARD — Singer of the Descent.</desc>
  <defs>
    <pattern id="bard-stipple" x="0" y="0" width="22" height="22" patternUnits="userSpaceOnUse">
      <rect width="22" height="22" fill="#1a0e2a"/>
      <circle cx="4" cy="6" r="0.6" fill="#f8eed0" opacity="0.7"/>
      <circle cx="16" cy="12" r="0.4" fill="#f8eed0" opacity="0.6"/>
      <circle cx="9" cy="17" r="0.5" fill="#f8eed0" opacity="0.5"/>
      <circle cx="19" cy="3" r="0.3" fill="#f8eed0" opacity="0.8"/>
      <circle cx="2" cy="19" r="0.3" fill="#f8eed0" opacity="0.6"/>
      <path d="M 12 8 L 12.5 7 L 13 8 L 12 8 Z" fill="#c89860" opacity="0.5"/>
    </pattern>
  </defs>
  <style>
    .frame-outer    { fill: #8b5a00; stroke: #3a2406; stroke-width: 1.6; }
    .frame-mid      { fill: #c89860; stroke: #6b3018; stroke-width: 0.8; }
    .frame-mat      { fill: #f2e4bc; stroke: #6b3018; stroke-width: 1.0; }
    .bg-field       { fill: url(#bard-stipple); stroke: #08041a; stroke-width: 1.0; }
    .cloak          { fill: #2e1a4a; stroke: #100628; stroke-width: 1.2; }
    .cloak-trim     { stroke: #6b3018; stroke-width: 1.2; fill: none; }
    .hood           { fill: #1c0e2e; stroke: #08041a; stroke-width: 1.2; }
    .hood-shadow    { fill: #08041a; opacity: 0.55; }
    .clasp          { fill: #c89860; stroke: #5e3c00; stroke-width: 0.6; }
    .skin           { fill: #d8b088; stroke: #6a4020; stroke-width: 0.9; }
    .skin-shadow    { fill: #1c0e2e; opacity: 0.45; }
    .hair           { fill: #1a0e08; stroke: #08040a; stroke-width: 0.8; }
    .brow           { stroke: #08040a; stroke-width: 1.4; fill: none; stroke-linecap: round; }
    .eye-white      { fill: #d8c8a8; stroke: #1a0e08; stroke-width: 0.4; }
    .eye-iris       { fill: #2a1838; }
    .eye-pupil      { fill: #08040a; }
    .nose           { stroke: #6a4020; stroke-width: 0.8; fill: none; stroke-linecap: round; }
    .mouth-open     { fill: #2a0810; stroke: #5a1810; stroke-width: 0.8; }
    .lip            { stroke: #6a2018; stroke-width: 0.7; fill: none; stroke-linecap: round; }
    .note           { fill: #f8eed0; stroke: #6b3018; stroke-width: 0.6; }
    .nameplate      { fill: #f6efd5; stroke: #6b3018; stroke-width: 1.0; }
    .name           { font-family: Georgia, serif; font-size: 13px; fill: #6b0f0f; font-weight: 700; text-anchor: middle; letter-spacing: 0.04em; text-transform: uppercase; }
    .title          { font-family: Georgia, serif; font-size: 9px; fill: #4a3a2a; font-style: italic; text-anchor: middle; letter-spacing: 0.05em; }
    .stud           { fill: #c89860; stroke: #5e3c00; stroke-width: 0.6; }
  </style>

  <rect class="frame-outer" x="2"  y="2"  width="216" height="276" rx="6"/>
  <rect class="frame-mid"   x="6"  y="6"  width="208" height="268" rx="4"/>
  <rect class="frame-mat"   x="10" y="10" width="200" height="260" rx="3"/>
  <rect class="bg-field"    x="18" y="18" width="184" height="210" rx="2"/>

  <path class="note" d="M 50 60 L 50 50 Q 54 49, 54 53 L 54 58 Z"/>
  <ellipse class="note" cx="49" cy="60" rx="2.2" ry="1.6"/>
  <path class="note" d="M 170 200 L 170 188 Q 174 187, 174 192 L 174 198 Z"/>
  <ellipse class="note" cx="169" cy="200" rx="2" ry="1.4"/>
  <path class="note" d="M 165 80 L 165 70 Q 168 69, 168 73 L 168 78 Z"/>
  <ellipse class="note" cx="164" cy="80" rx="1.8" ry="1.3"/>

  <path class="cloak" d="M 18 228 L 18 218 Q 28 184, 64 174 L 92 168 Q 110 166, 128 168 L 156 174 Q 192 184, 202 218 L 202 228 Z"/>
  <path class="cloak-trim" d="M 88 178 L 110 200 L 132 178"/>
  <circle class="clasp" cx="110" cy="194" r="2.5"/>

  <path class="skin" d="M 96 174 L 96 154 Q 100 150, 110 150 Q 120 150, 124 154 L 124 174 Z"/>
  <ellipse class="skin-shadow" cx="110" cy="170" rx="14" ry="3"/>

  <ellipse class="skin" cx="110" cy="106" rx="36" ry="46"/>

  <path class="hair" d="M 86 84 Q 92 76, 110 78 Q 128 76, 134 84 Q 124 80, 110 82 Q 96 80, 86 84 Z"/>

  <path class="hood" d="M 50 78 Q 60 36, 110 32 Q 160 36, 170 78 Q 172 110, 162 136 L 152 130 Q 158 100, 152 78 Q 142 56, 110 52 Q 78 56, 68 78 Q 62 100, 68 130 L 58 136 Q 48 110, 50 78 Z"/>
  <path class="hood-shadow" d="M 74 70 Q 80 60, 110 60 Q 140 60, 146 70 Q 148 90, 142 100 L 138 100 L 134 96 L 86 96 L 82 100 L 78 100 Q 72 90, 74 70 Z"/>

  <path class="brow" d="M 86 100 Q 94 97, 102 100"/>
  <path class="brow" d="M 118 100 Q 126 97, 134 100"/>

  <ellipse class="eye-white" cx="94" cy="108" rx="3.5" ry="1.8"/>
  <ellipse class="eye-white" cx="126" cy="108" rx="3.5" ry="1.8"/>
  <circle class="eye-iris" cx="94" cy="108" r="1.4"/>
  <circle class="eye-iris" cx="126" cy="108" r="1.4"/>
  <circle class="eye-pupil" cx="94" cy="108" r="0.7"/>
  <circle class="eye-pupil" cx="126" cy="108" r="0.7"/>

  <path class="nose" d="M 110 114 L 107 128 Q 110 132, 114 128"/>

  <ellipse class="mouth-open" cx="110" cy="142" rx="3.5" ry="3.2"/>
  <path class="lip" d="M 105 140 Q 110 138, 115 140"/>
  <path class="lip" d="M 105 145 Q 110 147, 115 145"/>

  <rect class="nameplate" x="22" y="234" width="176" height="32" rx="2"/>
  <text class="name" x="110" y="251">The Nameless Bard</text>
  <text class="title" x="110" y="262">Singer of the Descent</text>

  <circle class="stud" cx="14" cy="14" r="2.5"/>
  <circle class="stud" cx="206" cy="14" r="2.5"/>
  <circle class="stud" cx="14" cy="266" r="2.5"/>
  <circle class="stud" cx="206" cy="266" r="2.5"/>
</svg>
